<svg id="visual" viewBox="0 0 960 540" width="960" height="540" xmlns="http://www.w3.org/2000/svg" xmlns:xlink="http://www.w3.org/1999/xlink" version="1.1"><rect x="0" y="0" width="960" height="540" fill="#F7F3ED"></rect><path d="M0 350L13.3 340.8C26.7 331.7 53.3 313.3 80 311.8C106.7 310.3 133.3 325.7 160 328C186.7 330.3 213.3 319.7 240 320C266.7 320.3 293.3 331.7 320 326.7C346.7 321.7 373.3 300.3 400 290.7C426.7 281 453.3 283 480 298.5C506.7 314 533.3 343 560 355C586.7 367 613.3 362 640 352.7C666.7 343.3 693.3 329.7 720 334C746.7 338.3 773.3 360.7 800 355.8C826.7 351 853.3 319 880 319.2C906.7 319.3 933.3 351.7 946.7 367.8L960 384L960 541L946.7 541C933.3 541 906.7 541 880 541C853.3 541 826.7 541 800 541C773.3 541 746.7 541 720 541C693.3 541 666.7 541 640 541C613.3 541 586.7 541 560 541C533.3 541 506.7 541 480 541C453.3 541 426.7 541 400 541C373.3 541 346.7 541 320 541C293.3 541 266.7 541 240 541C213.3 541 186.7 541 160 541C133.3 541 106.7 541 80 541C53.3 541 26.7 541 13.3 541L0 541Z" fill="#bfbce1"></path><path d="M0 340L13.3 353.2C26.7 366.3 53.3 392.7 80 391.2C106.7 389.7 133.3 360.3 160 346.2C186.7 332 213.3 333 240 335.3C266.7 337.7 293.3 341.3 320 352.7C346.7 364 373.3 383 400 392C426.7 401 453.3 400 480 395C506.7 390 533.3 381 560 380C586.7 379 613.3 386 640 386.7C666.7 387.3 693.3 381.7 720 377.8C746.7 374 773.3 372 800 371C826.7 370 853.3 370 880 371.5C906.7 373 933.3 376 946.7 377.5L960 379L960 541L946.7 541C933.3 541 906.7 541 880 541C853.3 541 826.7 541 800 541C773.3 541 746.7 541 720 541C693.3 541 666.7 541 640 541C613.3 541 586.7 541 560 541C533.3 541 506.7 541 480 541C453.3 541 426.7 541 400 541C373.3 541 346.7 541 320 541C293.3 541 266.7 541 240 541C213.3 541 186.7 541 160 541C133.3 541 106.7 541 80 541C53.3 541 26.7 541 13.3 541L0 541Z" fill="#9ea1c8"></path><path d="M0 414L13.3 417.3C26.7 420.7 53.3 427.3 80 430.5C106.7 433.7 133.3 433.3 160 428.7C186.7 424 213.3 415 240 408C266.7 401 293.3 396 320 400.8C346.7 405.7 373.3 420.3 400 429.8C426.7 439.3 453.3 443.7 480 436.3C506.7 429 533.3 410 560 398.2C586.7 386.3 613.3 381.7 640 390.7C666.7 399.7 693.3 422.3 720 429.7C746.7 437 773.3 429 800 430C826.7 431 853.3 441 880 439.3C906.7 437.7 933.3 424.3 946.7 417.7L960 411L960 541L946.7 541C933.3 541 906.7 541 880 541C853.3 541 826.7 541 800 541C773.3 541 746.7 541 720 541C693.3 541 666.7 541 640 541C613.3 541 586.7 541 560 541C533.3 541 506.7 541 480 541C453.3 541 426.7 541 400 541C373.3 541 346.7 541 320 541C293.3 541 266.7 541 240 541C213.3 541 186.7 541 160 541C133.3 541 106.7 541 80 541C53.3 541 26.7 541 13.3 541L0 541Z" fill="#7d87af"></path><path d="M0 415L13.3 417.3C26.7 419.7 53.3 424.3 80 431.5C106.7 438.7 133.3 448.3 160 455C186.7 461.7 213.3 465.3 240 463.7C266.7 462 293.3 455 320 454C346.7 453 373.3 458 400 453.7C426.7 449.3 453.3 435.7 480 433C506.7 430.3 533.3 438.7 560 448C586.7 457.3 613.3 467.7 640 463.5C666.7 459.3 693.3 440.7 720 441.3C746.7 442 773.3 462 800 460.7C826.7 459.3 853.3 436.7 880 433C906.7 429.3 933.3 444.7 946.7 452.3L960 460L960 541L946.7 541C933.3 541 906.7 541 880 541C853.3 541 826.7 541 800 541C773.3 541 746.7 541 720 541C693.3 541 666.7 541 640 541C613.3 541 586.7 541 560 541C533.3 541 506.7 541 480 541C453.3 541 426.7 541 400 541C373.3 541 346.7 541 320 541C293.3 541 266.7 541 240 541C213.3 541 186.7 541 160 541C133.3 541 106.7 541 80 541C53.3 541 26.7 541 13.3 541L0 541Z" fill="#5c6e97"></path><path d="M0 510L13.3 509.3C26.7 508.7 53.3 507.3 80 503.5C106.7 499.7 133.3 493.3 160 486.2C186.7 479 213.3 471 240 474.7C266.7 478.3 293.3 493.7 320 498.5C346.7 503.3 373.3 497.7 400 496.8C426.7 496 453.3 500 480 498.5C506.7 497 533.3 490 560 484.5C586.7 479 613.3 475 640 473.5C666.7 472 693.3 473 720 478.3C746.7 483.7 773.3 493.3 800 498.2C826.7 503 853.3 503 880 499C906.7 495 933.3 487 946.7 483L960 479L960 541L946.7 541C933.3 541 906.7 541 880 541C853.3 541 826.7 541 800 541C773.3 541 746.7 541 720 541C693.3 541 666.7 541 640 541C613.3 541 586.7 541 560 541C533.3 541 506.7 541 480 541C453.3 541 426.7 541 400 541C373.3 541 346.7 541 320 541C293.3 541 266.7 541 240 541C213.3 541 186.7 541 160 541C133.3 541 106.7 541 80 541C53.3 541 26.7 541 13.3 541L0 541Z" fill="#39577f"></path></svg>